<mxfile host="app.diagrams.net" modified="2023-12-04T05:19:44.390Z" agent="Mozilla/5.0 (Windows NT 10.0; Win64; x64) AppleWebKit/537.36 (KHTML, like Gecko) Chrome/119.0.0.0 Safari/537.36" etag="fe2RnCwhNzcMS3vMPoKQ" version="22.1.5" type="github">
  <diagram id="07fea595-8f29-1299-0266-81d95cde20df" name="Page-1">
    <mxGraphModel dx="1964" dy="1259" grid="1" gridSize="10" guides="1" tooltips="1" connect="1" arrows="1" fold="1" page="1" pageScale="1" pageWidth="1169" pageHeight="827" background="#ffffff" math="0" shadow="0">
      <root>
        <mxCell id="0" />
        <mxCell id="1" parent="0" />
        <mxCell id="tW0mObP1afM9AvTv4hAw-217" value="服务" style="swimlane;whiteSpace=wrap;html=1;fontSize=11;" vertex="1" parent="1">
          <mxGeometry x="-20" y="-380" width="310" height="670" as="geometry" />
        </mxCell>
        <mxCell id="tW0mObP1afM9AvTv4hAw-238" style="edgeStyle=orthogonalEdgeStyle;rounded=0;orthogonalLoop=1;jettySize=auto;html=1;exitX=0.5;exitY=1;exitDx=0;exitDy=0;entryX=0.5;entryY=0;entryDx=0;entryDy=0;" edge="1" parent="tW0mObP1afM9AvTv4hAw-217" source="tW0mObP1afM9AvTv4hAw-219" target="tW0mObP1afM9AvTv4hAw-220">
          <mxGeometry relative="1" as="geometry" />
        </mxCell>
        <mxCell id="tW0mObP1afM9AvTv4hAw-219" value="开始" style="ellipse;whiteSpace=wrap;html=1;" vertex="1" parent="tW0mObP1afM9AvTv4hAw-217">
          <mxGeometry x="97.5" y="40" width="75" height="30" as="geometry" />
        </mxCell>
        <mxCell id="tW0mObP1afM9AvTv4hAw-220" value="使用lua脚本尝试加锁" style="rounded=0;whiteSpace=wrap;html=1;align=center;verticalAlign=middle;" vertex="1" parent="tW0mObP1afM9AvTv4hAw-217">
          <mxGeometry x="97.5" y="90" width="75" height="40" as="geometry" />
        </mxCell>
        <mxCell id="tW0mObP1afM9AvTv4hAw-242" style="edgeStyle=orthogonalEdgeStyle;rounded=0;orthogonalLoop=1;jettySize=auto;html=1;entryX=0;entryY=0.5;entryDx=0;entryDy=0;" edge="1" parent="tW0mObP1afM9AvTv4hAw-217" source="tW0mObP1afM9AvTv4hAw-239" target="tW0mObP1afM9AvTv4hAw-241">
          <mxGeometry relative="1" as="geometry">
            <Array as="points">
              <mxPoint x="40" y="250" />
              <mxPoint x="40" y="620" />
            </Array>
          </mxGeometry>
        </mxCell>
        <mxCell id="tW0mObP1afM9AvTv4hAw-239" value="获取锁成功" style="rounded=0;whiteSpace=wrap;html=1;align=center;verticalAlign=middle;" vertex="1" parent="tW0mObP1afM9AvTv4hAw-217">
          <mxGeometry x="97.5" y="230" width="75" height="40" as="geometry" />
        </mxCell>
        <mxCell id="tW0mObP1afM9AvTv4hAw-241" value="结束" style="ellipse;whiteSpace=wrap;html=1;" vertex="1" parent="tW0mObP1afM9AvTv4hAw-217">
          <mxGeometry x="95" y="600" width="80" height="40" as="geometry" />
        </mxCell>
        <mxCell id="tW0mObP1afM9AvTv4hAw-246" value="使用redis的消息机制去监听锁释放的消息" style="rounded=0;whiteSpace=wrap;html=1;align=center;verticalAlign=middle;fontSize=11;" vertex="1" parent="tW0mObP1afM9AvTv4hAw-217">
          <mxGeometry x="98" y="310" width="75" height="40" as="geometry" />
        </mxCell>
        <mxCell id="tW0mObP1afM9AvTv4hAw-253" style="edgeStyle=orthogonalEdgeStyle;rounded=0;orthogonalLoop=1;jettySize=auto;html=1;entryX=0;entryY=0.5;entryDx=0;entryDy=0;" edge="1" parent="tW0mObP1afM9AvTv4hAw-217" source="tW0mObP1afM9AvTv4hAw-250" target="tW0mObP1afM9AvTv4hAw-220">
          <mxGeometry relative="1" as="geometry">
            <Array as="points">
              <mxPoint x="78" y="540" />
              <mxPoint x="78" y="110" />
            </Array>
          </mxGeometry>
        </mxCell>
        <mxCell id="tW0mObP1afM9AvTv4hAw-250" value="再次尝试获取锁" style="rounded=0;whiteSpace=wrap;html=1;align=center;verticalAlign=middle;" vertex="1" parent="tW0mObP1afM9AvTv4hAw-217">
          <mxGeometry x="100" y="520" width="75" height="40" as="geometry" />
        </mxCell>
        <mxCell id="tW0mObP1afM9AvTv4hAw-254" value="" style="rounded=0;whiteSpace=wrap;html=1;" vertex="1" parent="tW0mObP1afM9AvTv4hAw-217">
          <mxGeometry x="100" y="430" width="80" height="40" as="geometry" />
        </mxCell>
        <mxCell id="tW0mObP1afM9AvTv4hAw-218" value="redis" style="swimlane;whiteSpace=wrap;html=1;" vertex="1" parent="1">
          <mxGeometry x="290" y="-380" width="280" height="670" as="geometry" />
        </mxCell>
        <mxCell id="tW0mObP1afM9AvTv4hAw-235" value="" style="edgeStyle=orthogonalEdgeStyle;rounded=0;orthogonalLoop=1;jettySize=auto;html=1;" edge="1" parent="tW0mObP1afM9AvTv4hAw-218" source="tW0mObP1afM9AvTv4hAw-232" target="tW0mObP1afM9AvTv4hAw-234">
          <mxGeometry relative="1" as="geometry" />
        </mxCell>
        <mxCell id="tW0mObP1afM9AvTv4hAw-232" value="执行lua脚本" style="shape=parallelogram;perimeter=parallelogramPerimeter;whiteSpace=wrap;html=1;fixedSize=1;" vertex="1" parent="tW0mObP1afM9AvTv4hAw-218">
          <mxGeometry x="80" y="90" width="100" height="40" as="geometry" />
        </mxCell>
        <mxCell id="tW0mObP1afM9AvTv4hAw-236" value="" style="edgeStyle=orthogonalEdgeStyle;rounded=0;orthogonalLoop=1;jettySize=auto;html=1;" edge="1" parent="tW0mObP1afM9AvTv4hAw-218" source="tW0mObP1afM9AvTv4hAw-234" target="tW0mObP1afM9AvTv4hAw-225">
          <mxGeometry relative="1" as="geometry" />
        </mxCell>
        <mxCell id="tW0mObP1afM9AvTv4hAw-237" value="N" style="edgeLabel;html=1;align=center;verticalAlign=middle;resizable=0;points=[];" vertex="1" connectable="0" parent="tW0mObP1afM9AvTv4hAw-236">
          <mxGeometry x="-0.175" y="1" relative="1" as="geometry">
            <mxPoint as="offset" />
          </mxGeometry>
        </mxCell>
        <mxCell id="tW0mObP1afM9AvTv4hAw-244" style="edgeStyle=orthogonalEdgeStyle;rounded=0;orthogonalLoop=1;jettySize=auto;html=1;entryX=1;entryY=0.5;entryDx=0;entryDy=0;" edge="1" parent="tW0mObP1afM9AvTv4hAw-218" source="tW0mObP1afM9AvTv4hAw-234" target="tW0mObP1afM9AvTv4hAw-243">
          <mxGeometry relative="1" as="geometry">
            <Array as="points">
              <mxPoint x="240" y="175" />
              <mxPoint x="240" y="330" />
            </Array>
          </mxGeometry>
        </mxCell>
        <mxCell id="tW0mObP1afM9AvTv4hAw-245" value="Y" style="edgeLabel;html=1;align=center;verticalAlign=middle;resizable=0;points=[];" vertex="1" connectable="0" parent="tW0mObP1afM9AvTv4hAw-244">
          <mxGeometry x="-0.0746" y="-1" relative="1" as="geometry">
            <mxPoint as="offset" />
          </mxGeometry>
        </mxCell>
        <mxCell id="tW0mObP1afM9AvTv4hAw-234" value="判断是否已经有锁" style="rhombus;whiteSpace=wrap;html=1;fontSize=11;" vertex="1" parent="tW0mObP1afM9AvTv4hAw-218">
          <mxGeometry x="80" y="150" width="100" height="50" as="geometry" />
        </mxCell>
        <mxCell id="tW0mObP1afM9AvTv4hAw-225" value="加上锁" style="rounded=0;whiteSpace=wrap;html=1;align=center;verticalAlign=middle;" vertex="1" parent="tW0mObP1afM9AvTv4hAw-218">
          <mxGeometry x="93.75" y="230" width="72.5" height="40" as="geometry" />
        </mxCell>
        <mxCell id="tW0mObP1afM9AvTv4hAw-243" value="获取当前锁过期时间" style="rounded=0;whiteSpace=wrap;html=1;align=center;verticalAlign=middle;" vertex="1" parent="tW0mObP1afM9AvTv4hAw-218">
          <mxGeometry x="94" y="310" width="75" height="40" as="geometry" />
        </mxCell>
        <mxCell id="tW0mObP1afM9AvTv4hAw-248" value="监听释放锁消息" style="rounded=0;whiteSpace=wrap;html=1;align=center;verticalAlign=middle;" vertex="1" parent="tW0mObP1afM9AvTv4hAw-218">
          <mxGeometry x="94" y="380" width="76" height="40" as="geometry" />
        </mxCell>
        <mxCell id="tW0mObP1afM9AvTv4hAw-233" style="edgeStyle=orthogonalEdgeStyle;rounded=0;orthogonalLoop=1;jettySize=auto;html=1;entryX=0;entryY=0.5;entryDx=0;entryDy=0;" edge="1" parent="1" source="tW0mObP1afM9AvTv4hAw-220" target="tW0mObP1afM9AvTv4hAw-232">
          <mxGeometry relative="1" as="geometry" />
        </mxCell>
        <mxCell id="tW0mObP1afM9AvTv4hAw-240" style="edgeStyle=orthogonalEdgeStyle;rounded=0;orthogonalLoop=1;jettySize=auto;html=1;entryX=1;entryY=0.5;entryDx=0;entryDy=0;" edge="1" parent="1" source="tW0mObP1afM9AvTv4hAw-225" target="tW0mObP1afM9AvTv4hAw-239">
          <mxGeometry relative="1" as="geometry" />
        </mxCell>
        <mxCell id="tW0mObP1afM9AvTv4hAw-247" style="edgeStyle=orthogonalEdgeStyle;rounded=0;orthogonalLoop=1;jettySize=auto;html=1;" edge="1" parent="1" source="tW0mObP1afM9AvTv4hAw-243" target="tW0mObP1afM9AvTv4hAw-246">
          <mxGeometry relative="1" as="geometry" />
        </mxCell>
        <mxCell id="tW0mObP1afM9AvTv4hAw-249" style="edgeStyle=orthogonalEdgeStyle;rounded=0;orthogonalLoop=1;jettySize=auto;html=1;entryX=0;entryY=0.5;entryDx=0;entryDy=0;" edge="1" parent="1" source="tW0mObP1afM9AvTv4hAw-246" target="tW0mObP1afM9AvTv4hAw-248">
          <mxGeometry relative="1" as="geometry">
            <Array as="points">
              <mxPoint x="120" y="20" />
            </Array>
          </mxGeometry>
        </mxCell>
        <mxCell id="tW0mObP1afM9AvTv4hAw-252" style="edgeStyle=orthogonalEdgeStyle;rounded=0;orthogonalLoop=1;jettySize=auto;html=1;entryX=1;entryY=0.5;entryDx=0;entryDy=0;" edge="1" parent="1" source="tW0mObP1afM9AvTv4hAw-248" target="tW0mObP1afM9AvTv4hAw-250">
          <mxGeometry relative="1" as="geometry">
            <Array as="points">
              <mxPoint x="422" y="160" />
            </Array>
          </mxGeometry>
        </mxCell>
      </root>
    </mxGraphModel>
  </diagram>
</mxfile>
